<svg width="35" height="24" viewBox="0 0 35 24" fill="none" xmlns="http://www.w3.org/2000/svg">
<rect width="35" height="24" rx="4" fill="#FFF8EF"/>
<path fill-rule="evenodd" clip-rule="evenodd" d="M25.627 12.0646C25.627 16.5185 22.0165 20.1292 17.5628 20.1292C13.1091 20.1292 9.4986 16.5185 9.4986 12.0646C9.4986 7.61064 13.1091 4 17.5628 4C22.0165 4 25.627 7.61064 25.627 12.0646ZM19.5002 9.06831C20.6219 9.45354 21.4425 10.0304 21.2815 11.1039C21.1646 11.89 20.7272 12.2701 20.1461 12.4033C20.9434 12.8167 21.2151 13.6014 20.9626 14.5503C20.4832 15.9157 19.3438 16.0307 17.8282 15.7453L17.4602 17.2131L16.5718 16.9922L16.9347 15.5441C16.7044 15.4871 16.469 15.4261 16.2265 15.361L15.8621 16.8162L14.9747 16.5954L15.3422 15.1246L13.5527 14.6748L13.9941 13.6613C13.9941 13.6613 14.6492 13.8343 14.6401 13.8216C14.8917 13.8837 15.0035 13.7203 15.0476 13.6119L16.0448 9.628C16.0559 9.43992 15.9906 9.20294 15.6307 9.11319C15.6444 9.10361 14.9853 8.95335 14.9853 8.95335L15.2217 8.00792L17.0137 8.45013L17.3782 6.99594L18.266 7.21679L17.9092 8.64224C18.1481 8.69619 18.388 8.75115 18.6214 8.80914L18.9757 7.39277L19.8641 7.61362L19.5002 9.06831ZM17.3745 11.4941C17.9796 11.6546 19.2965 12.0037 19.526 11.0883C19.7602 10.1517 18.4808 9.8688 17.8544 9.7303L17.8543 9.73029L17.8543 9.73027C17.7833 9.71459 17.7208 9.70075 17.6697 9.68803L17.2273 11.4558C17.2695 11.4663 17.319 11.4794 17.3745 11.4941ZM16.6888 14.3404C17.4136 14.5313 18.9989 14.9489 19.2511 13.9402C19.5093 12.9088 17.9723 12.5652 17.2224 12.3976L17.2223 12.3976C17.1385 12.3789 17.0646 12.3623 17.0041 12.3473L16.5161 14.2956C16.5656 14.3079 16.6237 14.3232 16.6887 14.3403L16.6888 14.3404Z" fill="#F7931A"/>
</svg>
