<svg width="23" height="22" viewBox="0 0 23 22" fill="none" xmlns="http://www.w3.org/2000/svg">
<path d="M13.4167 1C9.43861 3.4558 9.91667 10.375 9.91667 10.375C9.91667 10.375 8.16669 9.74998 8.16669 6.93751C6.07883 8.23465 4.66669 10.7278 4.66669 13.5C4.66669 17.6421 7.80069 21 11.6667 21C15.5327 21 18.6667 17.6421 18.6667 13.5C18.6666 7.40626 13.4167 6.15624 13.4167 1ZM12.2816 18.4157C10.8749 18.7915 9.45027 17.8744 9.09949 16.3672C8.74879 14.8601 9.60477 13.3336 11.0115 12.9578C14.4075 12.0506 14.8331 10.0045 14.8331 10.0045C14.8331 10.0045 16.5266 17.2817 12.2816 18.4157Z" fill="white"/>
</svg>
