<svg width="17" height="16" viewBox="0 0 17 16" fill="none" xmlns="http://www.w3.org/2000/svg">
<g clip-path="url(#clip0_131_111)">
<path d="M15.7747 1.5254C15.3654 1.04795 14.8198 0.775094 14.2059 0.843324H2.40578C1.17802 0.843324 0.15489 2.00288 0.359517 3.23064L1.99653 13.462C2.13296 14.4851 3.01966 15.1672 4.04279 15.1672H12.6371C13.6602 15.1672 14.5469 14.4169 14.6834 13.462L16.3204 3.23064C16.3886 2.61676 16.184 2.00288 15.7747 1.5254ZM9.77233 9.71046C9.56771 9.50583 9.36308 9.3694 9.09026 9.30121L9.63594 6.57286L8.27175 6.30004L7.65787 9.23301C7.38505 9.30121 7.11219 9.50583 6.83937 9.71046L3.42891 6.36824C6.08906 3.70809 10.3862 3.70809 13.0464 6.36824L9.77233 9.71046Z" fill="white"/>
</g>
<defs>
<clipPath id="clip0_131_111">
<rect width="16" height="16" fill="white" transform="translate(0.333344)"/>
</clipPath>
</defs>
</svg>
